<svg version="1.1" id="Layer_1" xmlns="http://www.w3.org/2000/svg" xmlns:xlink="http://www.w3.org/1999/xlink" x="0px" y="0px"
	 width="70px" viewBox="0 0 304 304" enable-background="new 0 0 304 304" xml:space="preserve">
<path fill="#000000" opacity="1.000000" stroke="none" 
	d="
M197.162048,71.727112 
	C213.476044,81.423317 225.128296,94.430672 228.751038,113.131004 
	C231.215881,125.854324 230.173813,138.642532 226.294357,151.052490 
	C225.298676,154.237549 225.091263,156.588776 226.999985,159.777328 
	C233.262329,170.238678 228.333099,188.169464 217.218277,196.285553 
	C214.894821,197.982132 213.598816,199.877716 212.720154,202.508545 
	C209.099182,213.350189 203.056564,222.539383 193.752304,229.404755 
	C192.951019,229.995987 192.181442,230.646973 191.476974,231.350174 
	C178.060349,244.743011 155.068039,248.872421 139.488983,238.377243 
	C126.604729,229.697464 115.132751,218.632126 110.415565,202.731491 
	C109.575783,199.900772 108.181480,197.905197 105.622353,196.159286 
	C94.200783,188.367096 90.119629,169.840469 97.078018,157.821884 
	C98.185844,155.908447 97.765793,154.561615 97.234520,152.740494 
	C92.738373,137.328384 90.708893,121.659538 96.291229,106.215736 
	C104.769844,82.759224 122.527840,69.194527 146.214981,63.986366 
	C163.681091,60.146046 180.999908,62.111290 197.162048,71.727112 
M118.509697,108.004974 
	C114.431168,118.086403 112.220749,128.649628 110.442894,139.323120 
	C108.608345,150.337021 108.626755,161.000015 116.364655,170.208008 
	C114.660683,159.502960 118.098999,151.653061 126.165237,147.195709 
	C132.916519,143.464981 144.787460,144.335526 150.714386,152.910767 
	C152.023224,154.804413 153.657547,154.620300 155.547394,153.831085 
	C159.042053,152.371689 162.765060,151.909027 166.234070,153.467590 
	C169.644501,154.999878 171.538147,153.853012 173.873138,151.326645 
	C178.995758,145.784210 185.504333,143.731232 192.905289,145.815323 
	C200.213486,147.873291 205.038574,152.562576 206.632782,160.145782 
	C207.176239,162.730911 207.362198,165.391205 207.732468,168.174774 
	C213.970490,160.167191 214.154175,151.513062 212.834763,142.267746 
	C210.826874,128.198013 207.812912,114.583313 201.676819,101.589066 
	C197.422974,92.580795 179.017227,85.154381 170.597015,90.395500 
	C164.556854,94.155167 158.351959,93.627533 152.101334,90.400398 
	C148.682236,88.635162 145.027618,88.139404 140.989349,88.828270 
	C129.896393,90.720543 122.639610,96.863220 118.509697,108.004974 
M123.653511,198.797333 
	C120.125031,194.035843 116.596550,189.274368 112.936394,184.335190 
	C113.072182,188.731049 116.636826,191.465149 117.398003,195.444824 
	C120.505989,211.694336 132.623016,221.456818 144.223724,231.311798 
	C149.221436,235.557434 156.198135,235.279434 162.455246,235.232529 
	C169.255554,235.181549 176.557251,234.703354 181.548203,229.407883 
	C185.215271,225.517120 189.338760,222.208450 193.090179,218.466202 
	C200.899689,210.675797 204.758072,200.940094 207.014282,190.230423 
	C204.912476,191.012650 204.080566,192.891571 202.895599,194.395218 
	C199.493927,198.711731 195.999878,202.951889 191.902985,206.632004 
	C187.676956,210.428101 185.326080,210.127975 182.519470,205.222580 
	C180.114151,201.018585 176.564697,199.090088 171.879623,199.044037 
	C165.553162,198.981827 159.221786,199.140884 152.900131,198.950958 
	C147.027405,198.774536 142.611176,200.573486 139.951019,206.231461 
	C138.194427,209.967575 135.184082,210.147629 132.228683,207.436142 
	C129.415756,204.855301 126.804619,202.054504 123.653511,198.797333 
M170.293045,171.926361 
	C169.972855,170.982040 169.566254,170.057251 169.347412,169.090012 
	C168.383163,164.828583 166.293137,161.436249 161.521408,161.441681 
	C156.730392,161.447113 154.850525,164.843399 153.782700,169.133926 
	C152.531769,174.160156 149.511978,178.053314 145.052673,180.846451 
	C140.678146,183.586456 135.868607,183.945648 131.071793,183.111771 
	C126.136299,182.253815 122.093262,179.444290 118.825974,175.521713 
	C123.123756,183.593002 127.632271,191.415161 134.521210,197.487152 
	C147.705841,186.673569 172.424698,186.572388 188.855972,197.172775 
	C193.408646,192.376511 197.992554,187.572571 201.163742,179.926346 
	C188.303635,185.276001 177.615005,185.453369 170.293045,171.926361 
M195.062927,84.244957 
	C203.437042,87.361137 207.423096,94.543198 211.061401,101.883247 
	C215.884354,111.613182 217.981995,122.238136 220.483047,133.387985 
	C226.295212,95.055748 192.473740,70.554314 161.018234,70.721489 
	C130.358887,70.884422 97.075882,94.948776 102.551346,133.277939 
	C105.106895,121.665749 108.113632,110.880638 112.475777,100.387009 
	C119.654213,83.118469 143.058304,75.636963 156.378616,82.657600 
	C159.347153,84.222221 162.570358,84.683495 165.526230,83.147369 
	C175.341080,78.046722 184.855682,79.857956 195.062927,84.244957 
M143.943420,170.293365 
	C146.795151,165.804092 146.530457,161.300842 143.200974,157.362366 
	C140.499023,154.166229 136.815186,152.541306 132.474792,153.950485 
	C127.752014,155.483826 124.817230,158.779678 124.454277,163.725754 
	C124.120506,168.274155 126.405670,171.744415 130.429321,173.854172 
	C134.640549,176.062271 139.098129,174.966660 143.943420,170.293365 
M198.575882,162.934860 
	C197.441406,157.619690 194.094269,154.323135 188.843231,153.582031 
	C185.039398,153.045181 181.589691,154.665634 179.350067,157.934235 
	C176.686401,161.821686 176.260712,166.015900 178.952744,170.072113 
	C181.755402,174.295029 185.897675,175.601288 190.728607,174.545013 
	C195.164352,173.575119 198.050552,169.466537 198.575882,162.934860 
z"/>
<path fill="#000000" opacity="1.000000" stroke="none" 
	d="
M173.081787,209.129852 
	C172.874176,210.300461 172.822128,211.260239 172.319946,211.805450 
	C169.791306,214.550751 154.015991,215.015411 151.365875,212.426575 
	C149.341812,210.449295 149.313660,208.300629 151.520859,206.435852 
	C154.117050,204.242416 169.084259,204.400162 171.760849,206.635422 
	C172.353180,207.130081 172.615479,208.019974 173.081787,209.129852 
z"/>
</svg>