<svg version="1.1" id="Layer_1" xmlns="http://www.w3.org/2000/svg" xmlns:xlink="http://www.w3.org/1999/xlink" x="0px" y="0px"
     width="20px" height="20px" viewBox="10 10 500 500"  xml:space="preserve">
<path fill="#000000" opacity="1.000000" stroke="none" 
	d="
M245.000000,501.000000 
	C163.333359,501.000000 82.166702,501.000000 1.000044,501.000000 
	C1.000029,334.333405 1.000029,167.666779 1.000015,1.000133 
	C167.666565,1.000089 334.333130,1.000089 500.999756,1.000044 
	C500.999847,167.666519 500.999847,334.333038 500.999939,500.999786 
	C415.833344,501.000000 330.666656,501.000000 245.000000,501.000000 
M244.929474,162.264847 
	C245.065552,164.076263 245.319550,165.887634 245.320358,167.699112 
	C245.338974,209.364075 245.330017,251.029053 245.326233,292.694031 
	C245.326050,294.648590 245.326202,296.603149 245.326202,298.778687 
	C261.473053,298.778687 277.051880,298.778687 293.167908,298.778687 
	C293.167908,283.614197 293.167908,268.608124 293.167908,253.602066 
	C300.427612,263.658142 306.679291,274.002563 313.262787,284.131317 
	C314.281433,285.698517 316.765106,287.029175 318.667694,287.170349 
	C324.137360,287.576202 329.663361,287.152557 335.153229,287.385223 
	C338.020294,287.506714 339.631531,286.600403 341.070618,284.061371 
	C346.651672,274.214600 352.482758,264.509247 358.254486,254.771210 
	C358.828003,253.803574 359.631226,252.972076 360.327850,252.077393 
	C360.694092,252.215759 361.060333,252.354111 361.426575,252.492477 
	C361.426575,267.911591 361.426575,283.330719 361.426575,298.697815 
	C377.600952,298.697815 393.180267,298.697815 408.508514,298.697815 
	C408.508514,252.645584 408.508514,206.908447 408.508514,160.904617 
	C394.830383,160.904617 381.673157,160.816193 368.521149,161.038437 
	C367.173950,161.061203 365.413086,162.672699 364.598602,164.007355 
	C358.355225,174.238007 352.301514,184.584366 346.183441,194.891541 
	C340.083038,205.168991 333.976349,215.442719 327.621765,226.139999 
	C326.288269,224.105423 325.248993,222.613129 324.303864,221.063416 
	C312.775604,202.160843 301.296356,183.228134 289.674591,164.383286 
	C288.770233,162.916840 286.902405,161.071243 285.466125,161.057159 
	C271.646179,160.921646 257.822723,161.141647 243.152664,160.829285 
	C214.663712,160.855133 186.169647,160.559418 157.687485,161.012329 
	C136.319138,161.352127 119.013451,170.355301 107.188446,188.436264 
	C96.031456,205.495789 94.319992,224.594299 97.250511,244.174088 
	C101.736580,274.147034 123.298325,295.607910 153.453888,298.296021 
	C172.469818,299.991089 191.731705,298.996826 210.883652,299.043701 
	C215.288605,299.054474 216.086365,295.863159 216.074753,292.094910 
	C216.011551,271.601562 216.054565,251.107941 216.041504,230.614410 
	C216.037537,224.388260 214.619614,222.934097 208.456009,222.916214 
	C197.126343,222.883347 185.796509,222.906799 174.466751,222.906723 
	C161.615494,222.906647 161.615479,222.906616 161.602615,235.533035 
	C161.591339,246.598648 161.591629,246.594727 172.700974,247.383942 
	C173.172043,247.417404 173.628937,247.650620 174.054413,247.779297 
	C175.379837,255.435913 173.608536,257.636322 166.045151,257.579926 
	C162.888611,257.556396 159.685501,257.552887 156.587845,257.035583 
	C147.762192,255.561783 141.473206,250.557373 139.157761,241.912476 
	C137.766479,236.717972 137.051331,231.021835 137.563553,225.698486 
	C139.066360,210.080246 147.149536,202.599030 162.956192,201.956665 
	C175.098419,201.463211 187.270386,201.696121 199.429184,201.616745 
	C207.988800,201.560883 215.752258,199.100174 222.950562,194.422653 
	C234.786682,186.731430 239.405014,174.442093 244.929474,162.264847 
M279.149078,312.099579 
	C276.979736,311.851105 274.810425,311.602631 272.671051,311.357574 
	C272.671051,321.084045 272.671051,329.963623 272.671051,339.107849 
	C274.642639,338.989746 276.213257,338.895630 278.102478,338.782440 
	C278.102478,333.189056 278.102478,327.963257 278.102478,321.286896 
	C280.256195,325.050964 281.650208,327.604462 283.156677,330.089752 
	C284.942352,333.035645 286.894928,333.205536 288.773895,330.168488 
	C290.271606,327.747711 291.677429,325.270050 293.124054,322.817627 
	C293.457733,322.933289 293.791382,323.048950 294.125061,323.164612 
	C294.125061,328.386139 294.125061,333.607697 294.125061,339.089172 
	C296.197235,338.985809 297.792725,338.906250 299.428864,338.824646 
	C299.428864,329.613953 299.428864,320.727844 299.428864,311.903870 
	C295.566162,310.925232 292.707458,311.196472 291.035278,315.186096 
	C289.802124,318.128265 287.967499,320.818329 286.051300,324.246002 
	C283.627625,319.893036 281.624878,316.296143 279.149078,312.099579 
M151.825378,339.618164 
	C165.666855,338.597351 164.831909,337.446930 163.272903,324.450836 
	C159.868423,324.450836 156.479919,324.450836 152.836670,324.450836 
	C152.955170,326.216095 153.050156,327.630890 153.142105,329.000702 
	C154.919907,329.182770 156.363907,329.330627 159.278763,329.629150 
	C157.697739,331.649231 156.635406,334.024261 155.737595,333.963623 
	C153.005890,333.779083 149.580963,333.433777 147.815506,331.719788 
	C144.894135,328.883606 145.787857,320.186737 148.642517,317.762817 
	C152.743835,314.280334 156.558578,316.216400 160.029617,319.166687 
	C161.508987,317.825500 162.697678,316.747864 163.836090,315.715790 
	C160.551575,310.369446 151.250198,310.049530 146.772903,312.225494 
	C142.034561,314.528259 139.583267,320.482971 140.388290,327.816864 
	C141.192398,335.142456 143.733047,337.941589 151.825378,339.618164 
M223.646881,317.556702 
	C216.762039,317.389923 213.744446,324.806488 215.369949,332.168488 
	C216.753433,338.434479 220.834381,340.123596 229.618317,337.812592 
	C228.842392,339.339661 228.374069,341.276764 227.745392,341.330292 
	C224.227158,341.629883 220.670212,341.474457 217.074310,341.474457 
	C215.457825,345.361298 215.457825,345.361298 219.147293,346.374237 
	C226.326416,348.345276 233.603027,345.999481 234.032440,340.878998 
	C234.659836,333.397644 234.193741,325.824585 234.193741,318.956604 
	C230.653885,318.497589 227.527496,318.092224 223.646881,317.556702 
M364.705811,324.194275 
	C364.279633,320.927765 362.860901,318.467682 359.305908,317.978516 
	C354.862152,317.367096 350.403046,316.868469 345.865540,322.293640 
	C348.993774,322.293640 350.900787,322.425934 352.782043,322.262177 
	C355.502075,322.025391 358.601318,320.826202 359.290588,325.290009 
	C356.076630,325.898102 353.442749,326.233978 350.901764,326.915924 
	C347.220215,327.903870 345.943665,330.721008 346.432281,334.211121 
	C346.946381,337.883362 349.502136,339.815735 353.067017,339.678711 
	C356.867615,339.532654 360.645355,338.791199 364.750275,338.269348 
	C364.750275,334.020813 364.750275,329.545959 364.705811,324.194275 
M168.975494,329.673889 
	C167.198883,335.594666 169.353424,339.717255 174.575745,339.665222 
	C178.433136,339.626801 182.282928,338.823578 186.407196,338.328522 
	C186.407196,334.494904 186.401794,330.518585 186.408798,326.542267 
	C186.415176,322.916473 186.101700,319.481140 181.882843,318.114868 
	C177.169678,316.588501 171.718124,317.926575 168.182281,322.375244 
	C170.767639,322.375244 172.552277,322.517944 174.305023,322.342285 
	C177.043762,322.067871 180.198776,320.554138 180.971344,324.545471 
	C176.866089,326.129517 173.129242,327.571411 168.975494,329.673889 
M242.783020,327.058380 
	C239.135086,328.773956 237.808945,332.057648 239.419327,335.265747 
	C240.445358,337.309723 243.490051,339.241669 245.829498,339.515411 
	C249.406219,339.933929 253.155594,338.877106 257.083893,338.417053 
	C257.083893,334.673920 257.024323,330.868195 257.100677,327.065186 
	C257.176849,323.272247 257.108978,319.610046 252.633942,318.138916 
	C247.924103,316.590668 242.464584,317.930115 238.820892,322.353699 
	C241.462967,322.353699 243.289307,322.536316 245.064209,322.311981 
	C247.907608,321.952545 250.971588,320.728210 251.971222,325.310974 
	C248.987244,325.853973 246.267883,326.348785 242.783020,327.058380 
M197.016251,328.810242 
	C197.018448,328.312531 196.807114,327.597290 197.057037,327.351898 
	C198.856949,325.584686 200.750366,323.912689 202.614151,322.210541 
	C203.446854,323.940735 204.821060,325.617065 204.999588,327.412323 
	C205.371902,331.156372 205.112244,334.963287 205.112244,339.078827 
	C207.140350,338.945862 208.682602,338.844757 210.294250,338.739105 
	C210.294250,333.366089 210.392960,328.398224 210.260406,323.436523 
	C210.168060,319.980011 208.357819,317.622772 204.733963,317.743073 
	C200.556915,317.881714 196.396713,318.527557 192.143219,318.961945 
	C192.143219,325.360016 192.143219,332.080963 192.143219,338.796570 
	C193.828491,338.796570 195.241928,338.796570 197.011581,338.796570 
	C197.011581,335.638031 197.011581,332.685822 197.016251,328.810242 
M315.726562,317.989868 
	C315.183441,319.138214 314.089111,321.247131 314.176239,321.297119 
	C318.633942,323.854919 316.451324,328.080322 316.638062,331.514526 
	C317.056885,339.216217 320.351410,341.440216 328.870575,337.917542 
	C327.113129,336.714905 325.860016,336.014252 324.802856,335.089539 
	C323.759705,334.177094 322.250397,333.119415 322.111115,331.982666 
	C321.736176,328.922272 321.982971,325.785736 321.982971,323.985748 
	C324.243774,322.219574 325.620605,321.255035 326.824036,320.108429 
	C327.059662,319.883911 326.623535,318.954346 326.506042,318.392059 
	C324.834381,318.144135 323.437225,317.936920 322.142914,317.744965 
	C321.974762,315.780731 321.837311,314.174774 321.693237,312.491669 
	C319.961914,312.491669 318.543488,312.491669 316.950226,312.491669 
	C316.798309,314.361359 316.665436,315.996613 315.726562,317.989868 
M331.041199,335.303986 
	C330.477966,340.041473 333.241852,339.286713 336.233002,338.605652 
	C336.233002,335.895264 336.231781,333.418396 336.233215,330.941498 
	C336.237244,324.094696 336.842377,323.419708 343.867126,322.668793 
	C344.055511,321.217407 344.249023,319.726837 344.348938,318.956970 
	C339.796295,318.956970 335.610687,318.956970 331.041199,318.956970 
	C331.041199,323.788696 331.041199,329.064972 331.041199,335.303986 
M305.554108,321.907623 
	C305.554108,327.513916 305.554108,333.120209 305.554108,339.066376 
	C307.538605,338.957428 309.096069,338.871918 310.543274,338.792480 
	C310.543274,331.665283 310.543274,324.960999 310.543274,318.070557 
	C308.166443,318.367035 305.145447,316.774658 305.554108,321.907623 
M305.327820,313.323578 
	C307.072327,313.626526 308.816864,313.929443 310.561371,314.232391 
	C310.370026,312.922882 310.599152,310.820068 309.907898,310.453674 
	C307.891907,309.385040 305.744293,309.516998 305.327820,313.323578 
z"/>
<path fill="#FDFDFD" opacity="1.000000" stroke="none" 
	d="
M244.000290,161.259903 
	C257.822723,161.141647 271.646179,160.921646 285.466125,161.057159 
	C286.902405,161.071243 288.770233,162.916840 289.674591,164.383286 
	C301.296356,183.228134 312.775604,202.160843 324.303864,221.063416 
	C325.248993,222.613129 326.288269,224.105423 327.621765,226.139999 
	C333.976349,215.442719 340.083038,205.168991 346.183441,194.891541 
	C352.301514,184.584366 358.355225,174.238007 364.598602,164.007355 
	C365.413086,162.672699 367.173950,161.061203 368.521149,161.038437 
	C381.673157,160.816193 394.830383,160.904617 408.508514,160.904617 
	C408.508514,206.908447 408.508514,252.645584 408.508514,298.697815 
	C393.180267,298.697815 377.600952,298.697815 361.426575,298.697815 
	C361.426575,283.330719 361.426575,267.911591 361.426575,252.492477 
	C361.060333,252.354111 360.694092,252.215759 360.327850,252.077393 
	C359.631226,252.972076 358.828003,253.803574 358.254486,254.771210 
	C352.482758,264.509247 346.651672,274.214600 341.070618,284.061371 
	C339.631531,286.600403 338.020294,287.506714 335.153229,287.385223 
	C329.663361,287.152557 324.137360,287.576202 318.667694,287.170349 
	C316.765106,287.029175 314.281433,285.698517 313.262787,284.131317 
	C306.679291,274.002563 300.427612,263.658142 293.167908,253.602066 
	C293.167908,268.608124 293.167908,283.614197 293.167908,298.778687 
	C277.051880,298.778687 261.473053,298.778687 245.326202,298.778687 
	C245.326202,296.603149 245.326050,294.648590 245.326233,292.694031 
	C245.330017,251.029053 245.338974,209.364075 245.320358,167.699112 
	C245.319550,165.887634 245.065552,164.076263 244.473450,161.976044 
	C244.017426,161.687256 244.000290,161.259903 244.000290,161.259903 
z"/>
<path fill="#FDFDFD" opacity="1.000000" stroke="none" 
	d="
M243.576477,161.044586 
	C244.000290,161.259903 244.017426,161.687256 244.030838,161.900681 
	C239.405014,174.442093 234.786682,186.731430 222.950562,194.422653 
	C215.752258,199.100174 207.988800,201.560883 199.429184,201.616745 
	C187.270386,201.696121 175.098419,201.463211 162.956192,201.956665 
	C147.149536,202.599030 139.066360,210.080246 137.563553,225.698486 
	C137.051331,231.021835 137.766479,236.717972 139.157761,241.912476 
	C141.473206,250.557373 147.762192,255.561783 156.587845,257.035583 
	C159.685501,257.552887 162.888611,257.556396 166.045151,257.579926 
	C173.608536,257.636322 175.379837,255.435913 174.054413,247.779297 
	C173.628937,247.650620 173.172043,247.417404 172.700974,247.383942 
	C161.591629,246.594727 161.591339,246.598648 161.602615,235.533035 
	C161.615479,222.906616 161.615494,222.906647 174.466751,222.906723 
	C185.796509,222.906799 197.126343,222.883347 208.456009,222.916214 
	C214.619614,222.934097 216.037537,224.388260 216.041504,230.614410 
	C216.054565,251.107941 216.011551,271.601562 216.074753,292.094910 
	C216.086365,295.863159 215.288605,299.054474 210.883652,299.043701 
	C191.731705,298.996826 172.469818,299.991089 153.453888,298.296021 
	C123.298325,295.607910 101.736580,274.147034 97.250511,244.174088 
	C94.319992,224.594299 96.031456,205.495789 107.188446,188.436264 
	C119.013451,170.355301 136.319138,161.352127 157.687485,161.012329 
	C186.169647,160.559418 214.663712,160.855133 243.576477,161.044586 
z"/>
<path fill="#EBEBEB" opacity="1.000000" stroke="none" 
	d="
M279.385620,312.399414 
	C281.624878,316.296143 283.627625,319.893036 286.051300,324.246002 
	C287.967499,320.818329 289.802124,318.128265 291.035278,315.186096 
	C292.707458,311.196472 295.566162,310.925232 299.428864,311.903870 
	C299.428864,320.727844 299.428864,329.613953 299.428864,338.824646 
	C297.792725,338.906250 296.197235,338.985809 294.125061,339.089172 
	C294.125061,333.607697 294.125061,328.386139 294.125061,323.164612 
	C293.791382,323.048950 293.457733,322.933289 293.124054,322.817627 
	C291.677429,325.270050 290.271606,327.747711 288.773895,330.168488 
	C286.894928,333.205536 284.942352,333.035645 283.156677,330.089752 
	C281.650208,327.604462 280.256195,325.050964 278.102478,321.286896 
	C278.102478,327.963257 278.102478,333.189056 278.102478,338.782440 
	C276.213257,338.895630 274.642639,338.989746 272.671051,339.107849 
	C272.671051,329.963623 272.671051,321.084045 272.671051,311.357574 
	C274.810425,311.602631 276.979736,311.851105 279.385620,312.399414 
z"/>
<path fill="#EFEFEF" opacity="1.000000" stroke="none" 
	d="
M151.417419,339.568420 
	C143.733047,337.941589 141.192398,335.142456 140.388290,327.816864 
	C139.583267,320.482971 142.034561,314.528259 146.772903,312.225494 
	C151.250198,310.049530 160.551575,310.369446 163.836090,315.715790 
	C162.697678,316.747864 161.508987,317.825500 160.029617,319.166687 
	C156.558578,316.216400 152.743835,314.280334 148.642517,317.762817 
	C145.787857,320.186737 144.894135,328.883606 147.815506,331.719788 
	C149.580963,333.433777 153.005890,333.779083 155.737595,333.963623 
	C156.635406,334.024261 157.697739,331.649231 159.278763,329.629150 
	C156.363907,329.330627 154.919907,329.182770 153.142105,329.000702 
	C153.050156,327.630890 152.955170,326.216095 152.836670,324.450836 
	C156.479919,324.450836 159.868423,324.450836 163.272903,324.450836 
	C164.831909,337.446930 165.666855,338.597351 151.417419,339.568420 
z"/>
<path fill="#EAEAEA" opacity="1.000000" stroke="none" 
	d="
M224.023987,317.621765 
	C227.527496,318.092224 230.653885,318.497589 234.193741,318.956604 
	C234.193741,325.824585 234.659836,333.397644 234.032440,340.878998 
	C233.603027,345.999481 226.326416,348.345276 219.147293,346.374237 
	C215.457825,345.361298 215.457825,345.361298 217.074310,341.474457 
	C220.670212,341.474457 224.227158,341.629883 227.745392,341.330292 
	C228.374069,341.276764 228.842392,339.339661 229.618317,337.812592 
	C220.834381,340.123596 216.753433,338.434479 215.369949,332.168488 
	C213.744446,324.806488 216.762039,317.389923 224.023987,317.621765 
M224.691299,334.311676 
	C230.592285,334.145660 229.268539,329.747223 229.081573,326.352112 
	C229.011383,325.077850 227.799500,323.113251 226.742432,322.830475 
	C225.307037,322.446533 223.024734,322.851227 221.979095,323.840698 
	C219.039581,326.622284 220.157425,331.805023 224.691299,334.311676 
z"/>
<path fill="#EAEAEA" opacity="1.000000" stroke="none" 
	d="
M364.728027,324.632690 
	C364.750275,329.545959 364.750275,334.020813 364.750275,338.269348 
	C360.645355,338.791199 356.867615,339.532654 353.067017,339.678711 
	C349.502136,339.815735 346.946381,337.883362 346.432281,334.211121 
	C345.943665,330.721008 347.220215,327.903870 350.901764,326.915924 
	C353.442749,326.233978 356.076630,325.898102 359.290588,325.290009 
	C358.601318,320.826202 355.502075,322.025391 352.782043,322.262177 
	C350.900787,322.425934 348.993774,322.293640 345.865540,322.293640 
	C350.403046,316.868469 354.862152,317.367096 359.305908,317.978516 
	C362.860901,318.467682 364.279633,320.927765 364.728027,324.632690 
M351.902832,332.695679 
	C352.054901,336.217194 354.633301,335.766968 356.405945,334.831604 
	C357.872314,334.057861 358.702057,332.077606 359.813904,330.631958 
	C359.337372,330.109619 358.860840,329.587311 358.384308,329.065002 
	C356.284668,329.986084 354.185028,330.907166 351.902832,332.695679 
z"/>
<path fill="#F0F0F0" opacity="1.000000" stroke="none" 
	d="
M169.183929,329.343567 
	C173.129242,327.571411 176.866089,326.129517 180.971344,324.545471 
	C180.198776,320.554138 177.043762,322.067871 174.305023,322.342285 
	C172.552277,322.517944 170.767639,322.375244 168.182281,322.375244 
	C171.718124,317.926575 177.169678,316.588501 181.882843,318.114868 
	C186.101700,319.481140 186.415176,322.916473 186.408798,326.542267 
	C186.401794,330.518585 186.407196,334.494904 186.407196,338.328522 
	C182.282928,338.823578 178.433136,339.626801 174.575745,339.665222 
	C169.353424,339.717255 167.198883,335.594666 169.183929,329.343567 
M180.458588,333.786072 
	C180.675659,332.456482 180.892731,331.126892 181.153259,329.531097 
	C179.151535,329.733704 177.564865,329.449432 176.626282,330.100067 
	C175.407364,330.945038 174.703949,332.533691 173.778641,333.802246 
	C175.752609,333.959808 177.726578,334.117371 180.458588,333.786072 
z"/>
<path fill="#F1F1F1" opacity="1.000000" stroke="none" 
	d="
M243.165771,326.950989 
	C246.267883,326.348785 248.987244,325.853973 251.971222,325.310974 
	C250.971588,320.728210 247.907608,321.952545 245.064209,322.311981 
	C243.289307,322.536316 241.462967,322.353699 238.820892,322.353699 
	C242.464584,317.930115 247.924103,316.590668 252.633942,318.138916 
	C257.108978,319.610046 257.176849,323.272247 257.100677,327.065186 
	C257.024323,330.868195 257.083893,334.673920 257.083893,338.417053 
	C253.155594,338.877106 249.406219,339.933929 245.829498,339.515411 
	C243.490051,339.241669 240.445358,337.309723 239.419327,335.265747 
	C237.808945,332.057648 239.135086,328.773956 243.165771,326.950989 
M249.159836,334.948639 
	C250.287003,333.452515 251.414169,331.956390 252.541336,330.460266 
	C251.928787,329.831024 251.316238,329.201813 250.703690,328.572571 
	C248.552017,330.064545 246.400330,331.556519 244.248672,333.048431 
	C245.619888,333.755737 246.991104,334.463013 249.159836,334.948639 
z"/>
<path fill="#F6F6F6" opacity="1.000000" stroke="none" 
	d="
M197.013916,329.271912 
	C197.011581,332.685822 197.011581,335.638031 197.011581,338.796570 
	C195.241928,338.796570 193.828491,338.796570 192.143219,338.796570 
	C192.143219,332.080963 192.143219,325.360016 192.143219,318.961945 
	C196.396713,318.527557 200.556915,317.881714 204.733963,317.743073 
	C208.357819,317.622772 210.168060,319.980011 210.260406,323.436523 
	C210.392960,328.398224 210.294250,333.366089 210.294250,338.739105 
	C208.682602,338.844757 207.140350,338.945862 205.112244,339.078827 
	C205.112244,334.963287 205.371902,331.156372 204.999588,327.412323 
	C204.821060,325.617065 203.446854,323.940735 202.614136,322.210510 
	C200.750366,323.912689 198.856949,325.584686 197.057037,327.351898 
	C196.807114,327.597290 197.018448,328.312531 197.013916,329.271912 
z"/>
<path fill="#EFEFEF" opacity="1.000000" stroke="none" 
	d="
M316.129578,317.810883 
	C316.665436,315.996613 316.798309,314.361359 316.950226,312.491669 
	C318.543488,312.491669 319.961914,312.491669 321.693237,312.491669 
	C321.837311,314.174774 321.974762,315.780731 322.142914,317.744965 
	C323.437225,317.936920 324.834381,318.144135 326.506042,318.392059 
	C326.623535,318.954346 327.059662,319.883911 326.824036,320.108429 
	C325.620605,321.255035 324.243774,322.219574 321.982971,323.985748 
	C321.982971,325.785736 321.736176,328.922272 322.111115,331.982666 
	C322.250397,333.119415 323.759705,334.177094 324.802856,335.089539 
	C325.860016,336.014252 327.113129,336.714905 328.870575,337.917542 
	C320.351410,341.440216 317.056885,339.216217 316.638062,331.514526 
	C316.451324,328.080322 318.633942,323.854919 314.176239,321.297119 
	C314.089111,321.247131 315.183441,319.138214 316.129578,317.810883 
z"/>
<path fill="#F6F6F6" opacity="1.000000" stroke="none" 
	d="
M331.041199,334.822632 
	C331.041199,329.064972 331.041199,323.788696 331.041199,318.956970 
	C335.610687,318.956970 339.796295,318.956970 344.348938,318.956970 
	C344.249023,319.726837 344.055511,321.217407 343.867126,322.668793 
	C336.842377,323.419708 336.237244,324.094696 336.233215,330.941498 
	C336.231781,333.418396 336.233002,335.895264 336.233002,338.605652 
	C333.241852,339.286713 330.477966,340.041473 331.041199,334.822632 
z"/>
<path fill="#EFEFEF" opacity="1.000000" stroke="none" 
	d="
M305.552673,321.455261 
	C305.145447,316.774658 308.166443,318.367035 310.543274,318.070557 
	C310.543274,324.960999 310.543274,331.665283 310.543274,338.792480 
	C309.096069,338.871918 307.538605,338.957428 305.554108,339.066376 
	C305.554108,333.120209 305.554108,327.513916 305.552673,321.455261 
z"/>
<path fill="#E8E8E8" opacity="1.000000" stroke="none" 
	d="
M305.269043,312.926819 
	C305.744293,309.516998 307.891907,309.385040 309.907898,310.453674 
	C310.599152,310.820068 310.370026,312.922882 310.561371,314.232391 
	C308.816864,313.929443 307.072327,313.626526 305.269043,312.926819 
z"/>
<path fill="#0F0F0F" opacity="1.000000" stroke="none" 
	d="
M224.274506,334.261780 
	C220.157425,331.805023 219.039581,326.622284 221.979095,323.840698 
	C223.024734,322.851227 225.307037,322.446533 226.742432,322.830475 
	C227.799500,323.113251 229.011383,325.077850 229.081573,326.352112 
	C229.268539,329.747223 230.592285,334.145660 224.274506,334.261780 
z"/>
<path fill="#111111" opacity="1.000000" stroke="none" 
	d="
M351.994110,332.261963 
	C354.185028,330.907166 356.284668,329.986084 358.384308,329.065002 
	C358.860840,329.587311 359.337372,330.109619 359.813904,330.631958 
	C358.702057,332.077606 357.872314,334.057861 356.405945,334.831604 
	C354.633301,335.766968 352.054901,336.217194 351.994110,332.261963 
z"/>
<path fill="#0B0B0B" opacity="1.000000" stroke="none" 
	d="
M180.079559,334.030518 
	C177.726578,334.117371 175.752609,333.959808 173.778641,333.802246 
	C174.703949,332.533691 175.407364,330.945038 176.626282,330.100067 
	C177.564865,329.449432 179.151535,329.733704 181.153259,329.531097 
	C180.892731,331.126892 180.675659,332.456482 180.079559,334.030518 
z"/>
<path fill="#121212" opacity="1.000000" stroke="none" 
	d="
M248.761078,335.059448 
	C246.991104,334.463013 245.619888,333.755737 244.248657,333.048462 
	C246.400330,331.556519 248.552017,330.064545 250.703690,328.572571 
	C251.316238,329.201813 251.928787,329.831024 252.541336,330.460266 
	C251.414169,331.956390 250.287003,333.452515 248.761078,335.059448 
z"/>
</svg>