<?xml version="1.0" standalone="no"?>
<!DOCTYPE svg PUBLIC "-//W3C//DTD SVG 20010904//EN"
 "http://www.w3.org/TR/2001/REC-SVG-20010904/DTD/svg10.dtd">
<svg version="1.0" xmlns="http://www.w3.org/2000/svg"
 width="80px" height="80px" viewBox="0 0 1280.000000 640.000000"
 preserveAspectRatio="xMidYMid meet">
<metadata>
Created by potrace 1.15, written by Peter Selinger 2001-2017
</metadata>
<g transform="translate(0.000000,640.000000) scale(0.100000,-0.100000)"
fill="#000000" stroke="none">
<path d="M7325 5910 c4 -7 125 -159 269 -338 379 -473 986 -1272 986 -1297 0
-3 -10 -19 -21 -35 -19 -25 -21 -37 -16 -97 3 -37 25 -126 47 -198 69 -219 57
-304 -47 -339 -58 -20 -112 -20 -186 -1 -94 24 -181 72 -417 231 -225 151
-316 206 -357 218 -17 5 -35 -3 -75 -34 -135 -108 -380 -194 -743 -264 -156
-30 -410 -63 -556 -72 l-107 -7 -18 28 c-16 25 -16 28 -2 36 43 24 186 138
308 244 130 114 138 123 218 254 73 118 162 300 162 330 0 5 4 12 8 15 5 3 2
-39 -5 -92 -53 -386 -68 -632 -37 -632 19 0 38 44 70 164 54 205 139 675 169
938 9 78 19 163 23 188 4 25 10 -115 13 -310 8 -437 31 -651 75 -695 16 -16
39 -21 30 -6 -7 11 106 43 115 33 4 -4 19 -36 33 -71 25 -62 51 -101 67 -101
4 0 33 35 63 79 57 81 117 141 139 141 18 0 38 -18 71 -63 39 -53 70 -66 97
-41 12 10 32 39 44 64 13 25 35 60 49 79 22 29 26 45 26 102 0 121 -44 297
-114 453 -14 33 -25 60 -23 62 1 2 41 -27 87 -63 286 -222 423 -313 472 -313
39 0 36 23 -13 117 -113 214 -493 701 -779 997 -135 140 -193 186 -233 186
-48 0 -116 -38 -148 -83 -117 -161 -539 -605 -784 -825 -203 -182 -598 -494
-609 -481 -1 2 -13 31 -26 64 -13 33 -50 114 -83 180 -185 374 -414 587 -548
508 -23 -14 -52 -61 -123 -198 -90 -176 -477 -857 -501 -884 -11 -11 -40 39
-159 275 -158 313 -282 530 -355 621 -40 50 -52 58 -85 61 -35 3 -43 -1 -85
-45 -61 -65 -150 -217 -297 -508 -114 -228 -234 -485 -234 -502 0 -10 34 51
220 397 163 304 305 549 351 602 l27 33 45 -48 c80 -85 235 -337 402 -652 l59
-110 -77 82 c-82 86 -160 143 -195 143 -32 0 -29 -41 13 -149 34 -87 65 -241
65 -321 0 -33 -3 -30 -61 60 -69 106 -199 242 -272 285 -45 26 -50 27 -65 11
-16 -16 -15 -23 16 -109 60 -166 63 -184 69 -362 3 -93 3 -168 0 -165 -3 3
-26 45 -52 95 -26 49 -66 117 -90 150 -75 105 -197 212 -247 218 -35 3 -35
-45 1 -134 45 -115 54 -181 48 -342 -4 -105 -12 -169 -31 -245 -26 -105 -80
-247 -97 -258 -15 -9 -3 577 14 666 8 41 12 77 10 80 -19 20 -296 -420 -472
-748 -89 -167 -122 -222 -134 -222 -4 0 -22 16 -39 36 -17 19 -59 55 -92 79
-64 46 -107 97 -212 260 -67 102 -139 185 -160 185 -13 0 -19 -13 -29 -72 -3
-21 -10 -38 -15 -38 -5 0 -26 22 -46 49 -45 60 -77 80 -98 62 -9 -7 -26 -37
-40 -66 -13 -29 -40 -71 -61 -94 -43 -47 -39 -53 11 -14 20 14 48 51 63 81
l28 55 62 -79 c35 -43 70 -83 78 -88 19 -11 32 8 34 49 0 17 4 41 8 55 6 23
10 19 44 -46 25 -47 71 -106 137 -176 55 -58 97 -108 94 -111 -4 -3 -42 23
-86 59 -82 67 -122 89 -145 80 -23 -9 -14 -34 22 -63 35 -28 147 -98 168 -106
24 -8 -125 -204 -176 -232 -50 -27 -75 -15 -129 59 -72 100 -112 100 -144 3
-33 -102 -83 -181 -102 -163 -4 4 -20 35 -37 69 -76 157 -194 127 -245 -61
l-11 -43 -58 73 c-31 40 -96 132 -143 204 -78 118 -144 194 -168 194 -10 0
-16 -17 -26 -72 -3 -21 -10 -38 -14 -38 -5 0 -27 23 -50 50 -71 85 -100 86
-129 3 -8 -21 -45 -89 -83 -151 -83 -138 -111 -192 -99 -192 24 0 91 97 148
217 35 73 67 133 72 133 5 0 34 -34 65 -76 32 -41 64 -78 73 -81 20 -8 32 14
34 57 0 19 4 44 8 55 7 17 12 12 33 -35 30 -67 68 -113 205 -251 57 -59 101
-109 96 -112 -4 -2 -34 -12 -65 -21 -32 -9 -64 -19 -71 -22 -10 -4 -27 24 -58
98 -24 57 -54 114 -67 126 -27 28 -37 23 -85 -47 -113 -167 -175 -231 -225
-231 -14 0 -39 23 -75 68 -95 119 -131 119 -194 2 -57 -107 -88 -147 -133
-170 -22 -11 -38 -25 -35 -30 4 -6 41 -10 83 -10 78 0 371 25 427 36 66 14 11
-8 -106 -42 -133 -38 -275 -90 -298 -108 -11 -9 -9 -12 10 -17 13 -4 42 -8 64
-9 36 -2 33 -4 -23 -12 -35 -6 -62 -11 -60 -13 2 -1 89 -21 193 -45 470 -104
677 -211 832 -433 61 -86 91 -107 155 -107 59 0 120 31 297 150 222 149 359
207 470 198 l43 -3 -148 -94 c-82 -52 -253 -164 -381 -248 -265 -174 -257
-172 -397 -127 -119 37 -216 50 -282 36 -51 -10 -64 -8 -198 28 -230 63 -474
147 -525 180 -92 58 -222 204 -331 369 -30 46 -56 79 -58 73 -5 -17 46 -151
89 -231 143 -266 404 -434 857 -551 50 -13 52 -25 16 -98 -50 -101 -204 -215
-359 -268 -106 -36 -268 -44 -378 -20 -152 34 -292 120 -427 263 l-83 88 7
-112 c13 -222 45 -340 106 -400 66 -65 72 -65 910 -48 532 10 727 0 1365 -74
143 -17 328 -35 410 -41 83 -6 209 -16 280 -23 173 -16 1202 -16 1785 1 245 7
726 19 1069 27 343 7 626 17 629 20 4 4 -851 5 -1900 3 -1204 -2 -1904 0
-1898 7 32 31 -9 103 -120 209 -93 88 -241 198 -363 271 -37 22 -67 43 -67 48
0 4 15 7 33 7 48 0 142 27 213 60 34 17 78 30 97 30 95 0 324 80 479 167 43
24 82 42 87 41 4 -2 34 33 66 77 182 254 300 355 416 355 43 0 64 -6 100 -28
83 -53 170 -166 287 -372 l32 -55 0 51 c0 125 -77 282 -202 407 l-87 88 30 43
c16 24 32 57 35 74 6 28 3 31 -38 46 -24 10 -94 25 -154 35 -100 16 -106 18
-69 25 66 12 193 56 217 75 38 31 20 48 -130 117 -10 5 118 232 150 264 86 89
238 168 454 236 63 20 113 38 111 40 -7 7 -185 -42 -308 -85 -161 -56 -287
-113 -378 -171 -43 -28 -83 -50 -90 -50 -6 0 -28 9 -48 20 -52 28 -85 25 -215
-16 -127 -42 -207 -47 -318 -24 -77 16 -120 9 -120 -20 0 -25 36 -43 129 -64
157 -36 421 -37 521 -2 24 8 46 13 49 11 10 -11 -56 -100 -79 -105 -19 -5 -28
-17 -38 -54 -13 -46 -15 -48 -45 -42 -16 3 -64 31 -106 61 -73 53 -78 55 -141
55 -123 0 -328 -64 -550 -171 l-124 -60 -69 31 c-37 18 -74 29 -83 26 -8 -3
-17 -19 -20 -36 -6 -28 -9 -30 -54 -30 -36 0 -56 7 -88 30 -23 17 -42 33 -42
38 0 4 68 27 150 51 206 61 329 110 351 141 26 37 31 64 15 86 -12 16 -25 19
-81 17 -77 -3 -128 -23 -273 -111 -183 -111 -201 -118 -347 -130 -161 -14
-191 -8 -254 51 l-48 45 61 21 c97 34 227 58 431 81 322 36 509 82 567 140 23
24 33 27 75 23 68 -7 309 21 578 67 406 69 1078 210 1001 210 -5 0 -115 -20
-245 -45 -631 -122 -1014 -177 -1239 -179 -126 -1 -154 2 -162 14 -5 8 -10 19
-10 23 0 5 47 7 105 6 102 -3 106 -2 122 22 31 47 77 89 97 89 11 0 44 -14 75
-32 52 -30 63 -32 151 -34 52 0 104 -4 116 -7 16 -6 23 -2 32 17 20 45 71 94
103 98 17 3 88 -3 157 -13 156 -22 203 -23 247 -5 42 18 53 52 36 114 -6 25
-9 47 -7 50 3 2 52 -3 110 -12 225 -35 306 -9 282 90 -6 24 -5 26 16 20 13 -4
70 -9 128 -13 104 -6 106 -6 189 -57 89 -54 98 -56 217 -41 55 7 163 -9 322
-50 50 -12 92 -21 92 -20 0 6 -257 223 -330 278 -128 97 -264 157 -357 157
-38 0 -44 15 -10 24 98 26 251 -22 368 -116 48 -39 129 -98 208 -151 60 -40
264 -90 496 -121 229 -31 624 -62 1155 -91 383 -21 733 -43 854 -55 54 -6 187
-9 295 -9 250 2 195 9 -349 44 -852 54 -1187 82 -1265 104 -17 5 -29 14 -27
21 1 6 -11 35 -28 62 l-32 51 64 -7 c35 -4 99 -12 143 -16 165 -18 727 -33
900 -24 94 5 152 10 130 11 -22 1 -119 7 -215 13 -359 22 -771 59 -954 86 -54
8 -101 12 -103 10 -3 -2 3 -16 13 -30 23 -36 13 -41 -43 -26 -71 19 -103 38
-103 60 0 18 48 60 69 60 6 0 11 7 11 16 0 13 20 14 173 9 290 -10 543 -24
992 -56 549 -38 866 -56 857 -48 -15 13 -319 69 -482 89 -281 34 -454 42
-1003 47 -531 5 -568 7 -577 23 -9 17 -1 19 93 24 159 9 870 21 1084 19 394
-4 733 -59 1079 -175 l150 -50 -23 -81 c-35 -119 -57 -257 -49 -300 16 -84 66
-111 261 -142 55 -9 152 -25 215 -35 270 -47 588 -62 798 -40 53 6 151 24 217
39 159 38 213 44 287 31 107 -20 164 -58 255 -172 59 -74 77 -81 102 -37 22
40 7 88 -61 191 -73 111 -108 183 -108 222 0 28 37 106 51 106 4 0 10 -17 13
-37 4 -21 26 -76 49 -123 71 -146 235 -290 329 -290 89 0 98 126 39 545 -39
280 -40 289 -19 293 23 5 154 -128 332 -338 173 -203 248 -283 293 -311 18
-11 63 -25 100 -30 38 -5 123 -23 191 -39 68 -17 136 -30 150 -30 l27 1 -31
27 c-26 23 -30 32 -27 63 13 101 -133 396 -442 894 -156 251 -255 417 -255
427 0 21 31 4 71 -39 98 -106 259 -326 624 -853 290 -420 347 -498 352 -483 3
7 -19 101 -47 210 -129 499 -256 844 -403 1092 -78 133 -204 265 -289 305
-166 77 -332 22 -529 -174 -138 -138 -233 -268 -508 -695 -143 -221 -263 -396
-269 -390 -5 5 92 195 139 272 23 38 82 123 130 190 120 164 189 274 265 426
l64 127 -21 63 c-86 259 -444 753 -813 1123 -159 158 -248 232 -317 263 -37
17 -47 18 -86 6 -120 -36 -432 -268 -828 -615 -133 -116 -365 -339 -365 -350
0 -15 107 11 174 43 93 44 159 95 368 283 219 197 268 238 268 226 0 -6 -4
-14 -10 -17 -5 -3 -112 -128 -236 -277 -230 -274 -333 -387 -369 -406 -19 -11
-19 -13 14 -78 19 -37 151 -243 294 -458 298 -449 424 -657 513 -841 79 -166
82 -175 52 -175 -19 1 -34 21 -86 113 -34 62 -85 147 -112 190 -48 74 -51 77
-88 77 -52 0 -120 -25 -277 -100 -186 -89 -213 -100 -245 -100 -35 0 -52 25
-38 56 13 28 64 55 168 89 209 67 230 119 95 234 -53 45 -207 231 -252 305
-39 64 -54 138 -34 175 16 29 22 27 51 -16 48 -72 352 -374 315 -312 -5 7 -41
64 -81 124 -39 61 -174 274 -299 475 -269 431 -457 718 -582 890 -193 265
-405 495 -576 623 -87 65 -162 113 -152 97z m-38 -396 c50 -109 140 -386 153
-469 16 -106 50 -606 50 -727 0 -60 -4 -108 -8 -108 -28 0 -148 556 -167 770
-4 41 -25 183 -46 314 -41 253 -45 296 -28 296 6 0 26 -34 46 -76z m2530 4
c108 -102 317 -404 550 -793 138 -229 253 -435 253 -450 0 -5 -89 80 -198 190
-436 440 -744 853 -768 1025 -6 44 -5 46 27 62 56 27 75 22 136 -34z m-2750
-74 c-29 -49 -146 -235 -259 -414 -113 -179 -227 -363 -254 -410 -80 -137
-142 -183 -199 -146 -21 14 -25 25 -25 62 0 58 25 106 103 196 35 40 173 206
307 368 262 318 370 443 377 437 2 -3 -20 -45 -50 -93z m2543 -43 c0 -109 29
-228 95 -396 88 -223 266 -553 359 -668 l42 -52 -13 -45 c-8 -25 -61 -228
-118 -451 -141 -548 -187 -699 -215 -699 -6 0 -10 24 -10 53 0 274 -31 964
-55 1233 -31 341 -75 550 -120 568 -43 16 -113 -108 -270 -484 -162 -384 -220
-492 -258 -477 -19 7 -55 128 -69 231 -29 217 55 491 199 646 61 67 98 90 139
90 34 0 83 30 111 67 56 77 118 243 153 411 7 34 17 62 21 62 5 0 9 -40 9 -89z
m-4433 -340 c77 -55 231 -266 420 -571 101 -162 421 -703 429 -723 3 -8 -12
-25 -35 -40 l-40 -27 -108 108 c-126 125 -230 206 -293 228 -106 37 -150 68
-325 230 -98 90 -188 167 -202 170 -70 18 -44 -43 136 -319 124 -190 184 -299
179 -322 -2 -9 -33 12 -83 56 -113 99 -238 186 -325 228 -63 30 -86 36 -142
36 -60 0 -70 -3 -97 -30 -37 -34 -55 -94 -46 -143 9 -46 54 -136 97 -193 53
-69 53 -69 0 -52 -31 10 -71 13 -118 10 l-70 -5 -71 151 c-39 84 -73 157 -75
163 -3 11 103 176 549 857 102 154 148 217 161 217 11 0 37 -13 59 -29z m827
-774 c22 -23 63 -73 89 -111 46 -65 49 -67 66 -52 11 10 33 51 51 92 18 40 38
74 45 74 6 0 33 -7 59 -16 l47 -16 -89 -92 c-107 -109 -113 -119 -177 -264
-27 -63 -55 -114 -60 -113 -15 1 -100 174 -130 265 -32 98 -37 195 -12 244 25
46 59 43 111 -11z m-4374 -2933 c30 -9 129 -53 220 -99 91 -46 185 -89 208
-96 23 -6 40 -14 38 -16 -2 -2 -74 5 -160 17 -142 18 -246 25 -246 17 0 -2 5
-29 10 -60 13 -68 0 -128 -35 -163 -34 -34 -73 -32 -81 4 -4 15 -19 78 -35
140 -35 137 -38 223 -9 252 24 24 23 24 90 4z"/>
<path d="M1847 3248 c-14 -18 -36 -55 -50 -83 -36 -74 -129 -306 -124 -311 2
-3 10 10 17 28 25 64 151 312 167 330 9 10 22 18 29 18 7 0 41 -34 76 -77 51
-62 64 -72 66 -55 4 27 -21 75 -70 135 -49 57 -76 61 -111 15z"/>
<path d="M4576 3146 c-175 -118 -213 -158 -188 -202 10 -18 6 -22 57 61 8 14
50 49 93 79 98 70 149 112 141 120 -3 4 -50 -23 -103 -58z"/>
<path d="M4672 3148 c-78 -106 -129 -218 -118 -263 4 -14 10 -25 14 -25 7 0
57 104 137 284 14 31 20 56 15 56 -5 0 -27 -24 -48 -52z"/>
<path d="M5360 3190 c0 -16 80 -61 150 -85 150 -51 392 -81 750 -90 233 -7
416 -22 720 -61 697 -89 825 -104 868 -103 26 1 -27 11 -123 24 -168 23 -291
43 -800 129 -312 53 -433 66 -619 66 -230 0 -419 23 -803 99 -79 15 -143 25
-143 21z"/>
<path d="M4796 3108 c-4 -29 -16 -86 -27 -126 -21 -76 -22 -123 -3 -129 15 -5
39 56 53 130 7 40 7 74 0 115 -6 31 -12 58 -14 60 -1 1 -5 -21 -9 -50z"/>
<path d="M4900 3042 c0 -79 23 -151 67 -209 70 -92 92 -178 94 -363 1 -162 20
-89 26 101 7 187 -5 238 -68 314 -43 52 -99 157 -99 187 0 9 -4 20 -10 23 -6
4 -10 -16 -10 -53z"/>
<path d="M5070 3070 c0 -47 31 -144 60 -190 16 -25 53 -66 83 -92 80 -69 123
-170 181 -418 l15 -65 -5 85 c-11 183 -49 343 -98 416 -12 18 -44 49 -71 71
-56 44 -95 92 -137 167 -23 43 -28 47 -28 26z"/>
<path d="M5283 3049 c39 -71 173 -242 243 -313 107 -108 338 -251 459 -285 56
-15 169 -14 210 3 41 17 101 62 108 79 3 9 -23 11 -108 8 -135 -4 -235 18
-363 79 -145 69 -255 153 -419 316 -110 109 -146 141 -130 113z"/>
<path d="M5493 2967 c133 -122 520 -307 702 -335 85 -14 463 1 750 29 158 15
265 39 265 59 0 15 -55 21 -129 15 -42 -4 -166 -17 -276 -31 -544 -65 -553
-66 -675 -24 -106 35 -205 84 -445 220 -98 56 -193 104 -210 106 -30 5 -29 5
18 -39z"/>
<path d="M5752 2938 c21 -63 282 -133 590 -159 283 -23 646 29 672 97 10 27
-19 24 -151 -15 -206 -62 -285 -74 -448 -68 -175 7 -261 27 -518 121 -102 37
-152 45 -145 24z"/>
<path d="M4250 2921 c-135 -43 -273 -132 -328 -213 -34 -50 -59 -114 -48 -125
13 -14 80 31 112 77 78 108 125 148 304 258 42 26 33 27 -40 3z"/>
<path d="M8180 2899 c0 -123 647 -329 1335 -425 226 -31 564 -39 647 -15 58
17 88 44 88 79 0 51 -8 53 -110 32 -405 -84 -1143 -15 -1577 146 -119 44 -250
112 -319 165 -59 45 -64 47 -64 18z"/>
<path d="M4460 2758 c-26 -43 -34 -88 -26 -149 4 -31 2 -57 -5 -72 -7 -12 -65
-76 -129 -143 -137 -141 -158 -170 -141 -187 10 -9 19 -4 43 23 17 19 78 88
137 153 150 167 146 160 146 294 0 62 -1 113 -3 113 -1 0 -11 -15 -22 -32z"/>
<path d="M7262 2730 c142 -73 385 -148 710 -220 195 -43 201 -36 13 15 -207
56 -419 120 -623 190 -90 30 -166 55 -170 55 -4 -1 28 -19 70 -40z"/>
<path d="M4711 2690 c-45 -57 -57 -89 -66 -180 -6 -68 -46 -242 -71 -312 -27
-76 -4 -52 40 43 61 133 84 206 95 304 6 53 20 108 35 141 14 30 21 54 16 54
-5 0 -27 -22 -49 -50z"/>
<path d="M7044 2566 c11 -9 24 -16 30 -16 12 0 7 5 -24 19 -24 11 -24 11 -6
-3z"/>
<path d="M7275 2463 c131 -71 353 -146 634 -214 216 -53 277 -60 114 -14 -141
39 -592 181 -687 216 -90 33 -105 36 -61 12z"/>
<path d="M8340 2437 c9 -10 476 -104 695 -141 863 -143 1720 -180 2549 -111
93 8 171 17 174 20 3 3 -122 5 -278 5 -715 0 -1750 59 -2475 141 -162 18 -545
70 -635 86 -19 3 -33 3 -30 0z"/>
<path d="M6777 2397 c2 -4 72 -52 155 -107 174 -116 368 -214 518 -264 99 -32
778 -181 787 -172 2 2 -29 12 -69 21 -415 100 -847 255 -1195 429 -110 56
-199 98 -196 93z"/>
<path d="M5245 2200 c-344 -38 -851 -168 -1092 -280 -173 -80 -79 -79 307 6
880 192 1134 227 1370 190 221 -35 520 -125 1010 -306 227 -84 420 -150 436
-150 2 0 4 4 4 10 0 37 -511 211 -1200 408 -439 126 -427 124 -600 127 -85 2
-191 0 -235 -5z"/>
<path d="M735 2114 c46 -38 280 -179 490 -296 306 -170 313 -172 127 -30 -258
196 -465 312 -622 346 -24 5 -24 4 5 -20z"/>
<path d="M8648 2053 c7 -3 16 -2 19 1 4 3 -2 6 -13 5 -11 0 -14 -3 -6 -6z"/>
<path d="M8688 2043 c7 -3 16 -2 19 1 4 3 -2 6 -13 5 -11 0 -14 -3 -6 -6z"/>
<path d="M0 1971 c0 -50 47 -183 85 -239 43 -63 92 -96 164 -111 70 -15 162
-62 422 -217 300 -178 388 -216 397 -172 5 24 -69 101 -142 147 -138 87 -373
189 -488 211 -29 6 -64 13 -77 16 -39 8 -128 102 -219 229 -124 175 -142 192
-142 136z"/>
<path d="M5365 1994 c-268 -39 -433 -77 -664 -154 -230 -77 -412 -161 -426
-199 -9 -24 52 -7 304 83 531 190 789 244 1046 217 209 -22 390 -64 764 -176
255 -77 331 -95 331 -78 0 44 -246 144 -538 219 -235 60 -406 85 -607 89 -99
2 -193 1 -210 -1z"/>
<path d="M3725 1674 c-27 -134 -52 -244 -55 -244 -3 0 -29 65 -59 145 -29 80
-57 147 -61 150 -5 3 -22 -18 -39 -47 -17 -29 -62 -98 -101 -153 -38 -55 -70
-107 -70 -116 0 -19 29 -33 112 -54 153 -39 146 -36 118 -47 l-25 -10 47 -42
c80 -73 180 -84 293 -32 144 66 210 215 151 341 -22 47 -123 155 -145 155 -5
0 -20 -44 -32 -97 -29 -131 -36 -140 -43 -62 -21 217 -35 352 -38 355 -2 1
-26 -107 -53 -242z"/>
<path d="M7723 1806 c-152 -48 -290 -201 -558 -619 -59 -93 -169 -255 -245
-360 -76 -106 -137 -193 -136 -194 1 -1 19 2 41 7 60 14 136 12 187 -6 43 -14
81 -47 155 -133 27 -31 30 -32 46 -17 30 30 20 68 -42 165 -71 110 -79 137
-55 187 18 37 18 37 27 13 40 -99 73 -156 119 -205 81 -86 165 -118 199 -77
26 31 11 251 -37 543 l-6 35 22 -20 c11 -10 56 -71 100 -134 120 -177 306
-331 399 -331 20 0 82 -11 139 -25 57 -14 113 -25 125 -24 l22 0 -22 16 c-19
12 -23 25 -23 63 0 69 -64 190 -205 389 -63 90 -115 168 -115 172 0 48 138
-96 383 -400 94 -118 177 -216 184 -218 15 -5 -59 279 -127 488 -98 302 -189
479 -305 595 -57 58 -81 75 -125 88 -63 19 -91 19 -147 2z"/>
<path d="M12630 1789 c-208 -28 -879 -89 -1190 -109 -856 -54 -1344 -41 -2203
60 -185 22 -345 40 -354 40 -130 0 646 -96 1087 -134 610 -53 1219 -63 1711
-26 470 34 1069 126 1112 169 13 13 -64 13 -163 0z"/>
<path d="M5335 1663 c-89 -8 -269 -45 -383 -77 -334 -97 -642 -251 -619 -310
7 -16 17 -18 95 -14 105 6 146 23 317 130 145 91 216 127 318 162 135 46 251
67 417 73 266 10 421 -29 697 -173 154 -80 204 -97 218 -73 13 19 -38 60 -138
110 -253 126 -637 198 -922 172z"/>
<path d="M12470 1494 c-18 -4 -418 -39 -615 -53 -836 -62 -1789 -68 -2555 -16
-202 14 -304 17 -270 9 25 -6 719 -62 965 -78 645 -42 1105 -50 1360 -22 337
36 1016 128 1155 155 42 8 42 9 10 9 -19 0 -42 -2 -50 -4z"/>
<path d="M8943 1443 c15 -2 37 -2 50 0 12 2 0 4 -28 4 -27 0 -38 -2 -22 -4z"/>
<path d="M4939 1395 c-54 -20 -111 -58 -197 -133 -224 -197 -353 -257 -605
-283 -236 -24 -454 7 -881 125 -128 36 -169 42 -200 30 -68 -26 87 -108 313
-165 300 -76 616 -79 886 -9 117 31 275 87 397 140 256 114 469 257 443 300
-9 14 -113 11 -156 -5z"/>
<path d="M5797 1380 c-26 -11 -94 -45 -150 -75 -57 -30 -112 -55 -123 -55 -10
0 -73 22 -139 49 -66 26 -121 44 -123 40 -9 -23 42 -80 96 -106 51 -25 67 -28
152 -26 203 3 470 117 419 179 -16 19 -75 17 -132 -6z"/>
<path d="M6180 1226 c-527 -144 -612 -154 -1100 -133 -280 12 -184 -22 162
-58 296 -30 558 -16 792 45 219 57 368 138 300 164 -27 10 -66 6 -154 -18z"/>
<path d="M12535 1024 c-652 -182 -1883 -201 -3485 -54 -312 29 -376 32 -205
10 337 -44 1061 -114 1485 -144 611 -44 1120 -52 1365 -22 258 31 529 84 740
146 106 31 195 65 195 75 0 9 -42 4 -95 -11z"/>
<path d="M8653 1003 c9 -2 23 -2 30 0 6 3 -1 5 -18 5 -16 0 -22 -2 -12 -5z"/>
</g>
</svg>
